<svg width="58" height="23" viewBox="0 0 58 23" fill="none" xmlns="http://www.w3.org/2000/svg">
<g id="Group 3717">
<path id="Vector" d="M16.9412 0.282715H0V22.7173H16.9412V0.282715Z" fill="#3374BA"/>
<path id="Vector_2" d="M57.4113 0.282715H38.1172V22.7173H57.4113V0.282715Z" fill="#3374BA"/>
<path id="Vector_3" d="M38.1179 0.282715H16.9414V22.7173H38.1179V0.282715Z" fill="#1A3C67"/>
<g id="Clip path group">
<path id="Vector_4" d="M35.4705 17.9648C35.0523 17.7601 34.9408 16.8387 34.9965 15.8405C35.1638 12.5901 33.6862 11.7199 31.5395 11.1313V11.0801C33.2959 10.9265 35.4705 10.3891 35.4705 7.70171C35.4705 6.78033 34.9129 4.68164 31.3165 4.68164H25.6012V5.16792H26.9394V10.7986H21.7817V5.16792H23.092V4.68164H18.3525V5.16792H19.6908V17.9904H18.3525V18.4767H23.092V17.9904H21.7817V11.2592H26.9394V17.9904H25.6012V18.4767H30.508V17.9904H29.0303V11.2592H29.9225C32.2922 11.2592 32.4595 12.7949 32.5431 13.7418C32.6825 14.9703 32.7941 16.6595 32.8777 17.0179C33.1286 17.9904 34.1044 18.7582 35.4426 18.7582C35.9444 18.7326 36.4741 18.6047 37.1154 18.3743V17.8625C36.502 18.1184 35.805 18.2208 35.4705 17.9648ZM29.811 10.7986H29.0303V5.16792H30.5637C32.3759 5.16792 33.1565 5.78217 33.1565 7.77849C33.1565 10.5938 31.874 10.7986 29.811 10.7986Z" fill="white"/>
</g>
<g id="Clip path group_2">
<path id="Vector_5" d="M53.7129 5.20591H55.2184V4.68164H51.0644L47.8304 15.1932L44.6242 4.68164H40.4702V5.20591H41.9757V18.2864H40.4702V18.7582H44.1503V18.2864H42.6448V5.5729H42.6727L46.7431 18.7582H47.4401L51.5383 5.5729H51.5941V18.2864H50.0886V18.7582H55.2184V18.2864H53.7129V5.20591Z" fill="white"/>
</g>
<g id="Clip path group_3">
<path id="Vector_6" d="M4.52389 17.7419C5.47179 18.3771 7.08879 18.7582 8.34336 18.7582C11.8004 18.7582 14.0308 16.9034 14.0308 14.6166C14.0308 12.8633 12.8598 11.5421 10.1276 10.8052C9.0961 10.5257 8.06457 10.2716 7.36758 10.0683C5.7227 9.61099 4.41237 9.02658 4.41237 7.47663C4.41237 6.12995 6.02937 5.18982 7.73002 5.18982C10.4064 5.18982 12.0792 6.79059 12.3859 8.69626H13.2501V4.88491H12.7762L11.7446 5.698C10.518 4.96114 9.3749 4.68164 7.81365 4.68164C5.02571 4.68164 2.93476 6.257 2.93476 8.36595C2.93476 10.2716 4.41237 11.3642 6.92151 11.9232C7.45122 12.0503 7.98093 12.2027 8.53852 12.3298C10.9919 12.9142 12.5532 13.5494 12.5532 15.4042C12.5532 17.0558 10.6852 18.2246 8.53852 18.2246C5.69482 18.2246 4.16145 16.446 3.60387 14.5403H2.82324V18.555H3.26931L4.52389 17.7419Z" fill="white"/>
</g>
</g>
</svg>
